<svg id="_9-statistic" data-name="9-statistic" xmlns="http://www.w3.org/2000/svg" width="90.681" height="90.681" viewBox="0 0 65.681 65.681">
  <path id="Trazado_1106" data-name="Trazado 1106" d="M63.578,2.11A7.1,7.1,0,0,0,58.5,0H7.184A7.192,7.192,0,0,0,0,7.184V42.077a7.192,7.192,0,0,0,7.184,7.184H23.419L21.709,59.523H14.368a3.079,3.079,0,0,0,0,6.158H51.313a3.079,3.079,0,1,0,0-6.158H43.972L42.262,49.261H58.5a7.192,7.192,0,0,0,7.184-7.184V7.184a7.1,7.1,0,0,0-2.1-5.074ZM52.044,61.89a.982.982,0,0,1,.3.712,1.026,1.026,0,0,1-1.026,1.026H14.368a1,1,0,0,1-.731-.314.982.982,0,0,1-.3-.712,1.026,1.026,0,0,1,1.026-1.026H51.313A1,1,0,0,1,52.044,61.89ZM41.892,59.523h-18.1L25.5,49.261h3.236v2.053a4.105,4.105,0,0,0,8.21,0V49.261h3.236Zm-7-10.263v2.053a2.053,2.053,0,0,1-4.105,0V49.261Zm28.735-7.184A5.137,5.137,0,0,1,58.5,47.208H7.184a5.137,5.137,0,0,1-5.131-5.131V7.184A5.137,5.137,0,0,1,7.184,2.053H58.5a5.141,5.141,0,0,1,5.131,5.131Z" transform="translate(0 0)"/>
  <path id="Trazado_1107" data-name="Trazado 1107" d="M58.019,4H8.155A4.462,4.462,0,0,0,4,8.715v33a4.462,4.462,0,0,0,4.155,4.715H58.019a4.462,4.462,0,0,0,4.155-4.715v-33A4.462,4.462,0,0,0,58.019,4ZM60.1,41.718a2.231,2.231,0,0,1-2.078,2.357H8.155a2.231,2.231,0,0,1-2.078-2.357v-33A2.231,2.231,0,0,1,8.155,6.357H58.019A2.231,2.231,0,0,1,60.1,8.715Z" transform="translate(-0.247 -0.247)"/>
  <path id="Trazado_1108" data-name="Trazado 1108" d="M35.445,42H27.938a.938.938,0,1,0,0,1.877h7.506a.938.938,0,0,0,0-1.877Z" transform="translate(1.149 1.222)"/>
  <path id="Trazado_1109" data-name="Trazado 1109" d="M21.2,9A12.2,12.2,0,1,0,30.14,29.477a.9.9,0,0,0,.165-.11.938.938,0,0,0,.2-.3A12.187,12.187,0,0,0,21.2,9ZM31.518,21.2a10.271,10.271,0,0,1-2.013,6.127l-7.37-6.548V10.924A10.331,10.331,0,0,1,31.518,21.2ZM21.2,31.519a10.321,10.321,0,0,1-.938-20.595V21.2a.938.938,0,0,0,.315.7l7.678,6.822A10.321,10.321,0,0,1,21.2,31.519Z" transform="translate(-0.554 -0.555)"/>
  <path id="Trazado_1110" data-name="Trazado 1110" d="M52.951,11H37.938a.938.938,0,0,0-.938.938v3.753a.938.938,0,0,0,.938.938H52.951a.938.938,0,0,0,.938-.938V11.938A.938.938,0,0,0,52.951,11ZM38.877,12.877h5.63v1.877h-5.63Zm13.136,1.877h-5.63V12.877h5.63Z" transform="translate(3.347 0.389)"/>
  <path id="Trazado_1111" data-name="Trazado 1111" d="M52.951,19H37.938a.938.938,0,0,0-.938.938v3.753a.938.938,0,0,0,.938.938H52.951a.938.938,0,0,0,.938-.938V19.938A.938.938,0,0,0,52.951,19ZM38.877,20.877H48.26v1.877H38.877Zm13.136,1.877H50.136V20.877h1.877Z" transform="translate(3.347 0.672)"/>
  <path id="Trazado_1112" data-name="Trazado 1112" d="M52.951,27H37.938a.938.938,0,0,0-.938.938v3.753a.938.938,0,0,0,.938.938H52.951a.938.938,0,0,0,.938-.938V27.938A.938.938,0,0,0,52.951,27ZM38.877,28.877h2.815v1.877H38.877Zm13.136,1.877H43.568V28.877h8.445Z" transform="translate(3.347 0.955)"/>
</svg>
