<svg xmlns="http://www.w3.org/2000/svg" width="90.305" height="90.947" viewBox="0 0 84.305 53.947">
  <g id="Grupo_1360" data-name="Grupo 1360" transform="translate(-15.155 -31.092)">
    <g id="Grupo_459" data-name="Grupo 459" transform="translate(38.914 31.092)">
      <path id="Trazado_3628" data-name="Trazado 3628" d="M177.211,122.575l-7.176-3.189a1.406,1.406,0,0,1-.834-1.284v-1.971a10.458,10.458,0,0,0,3.96-8.193v-2.774a2.559,2.559,0,0,0,1.32-2.237v-.269a10.486,10.486,0,0,0-10.474-10.474h-2.64a10.486,10.486,0,0,0-10.474,10.474V105.1a2.59,2.59,0,0,0,.985,2.075,2.41,2.41,0,0,0,.334.217v.545a10.458,10.458,0,0,0,3.96,8.193V118.1a1.406,1.406,0,0,1-.834,1.284l-7.176,3.189a6.52,6.52,0,0,0-3.869,5.953V144.9a1.235,1.235,0,1,0,2.47,0V128.528a4.039,4.039,0,0,1,.025-.425l3.307,3.307a2.708,2.708,0,0,1,.8,1.927V144.9a1.235,1.235,0,0,0,2.47,0V133.337a5.16,5.16,0,0,0-1.521-3.673l-3.942-3.942a4.035,4.035,0,0,1,1.266-.889l7.055-3.136,5.232,5.232V144.9a1.235,1.235,0,1,0,2.47,0V126.929l5.232-5.232,7.055,3.135a4.032,4.032,0,0,1,1.266.89l-3.942,3.942a5.16,5.16,0,0,0-1.521,3.673V144.9a1.235,1.235,0,0,0,2.47,0V133.337a2.707,2.707,0,0,1,.8-1.927l3.306-3.307a4.033,4.033,0,0,1,.025.424V144.9a1.235,1.235,0,0,0,2.47,0V128.528A6.521,6.521,0,0,0,177.211,122.575Zm-14.525,2.1-4.591-4.591a3.868,3.868,0,0,0,.546-1.978v-.5a10.466,10.466,0,0,0,8.089,0v.5a3.867,3.867,0,0,0,.546,1.978Zm0-8.728a8.013,8.013,0,0,1-8-8v-.555a7.3,7.3,0,0,0,2.243-1.456,1.235,1.235,0,0,0-1.675-1.815,4.435,4.435,0,0,1-1.834,1.095.2.2,0,0,1-.033.006.251.251,0,0,1-.021-.112v-2.443a8.014,8.014,0,0,1,8-8h2.64a8.014,8.014,0,0,1,8,8v.269a.079.079,0,0,1-.056.081c-7.395,1.461-11.1-1.292-12.355-2.543a1.235,1.235,0,0,0-1.746,1.746c3.835,3.835,9.431,3.9,12.838,3.495v2.232A8.014,8.014,0,0,1,162.686,115.943Z" transform="translate(-144.292 -92.184)"/>
    </g>
    <g id="Grupo_462" data-name="Grupo 462" transform="translate(15.155 37.691)">
      <g id="Grupo_461" data-name="Grupo 461">
        <path id="Trazado_3629" data-name="Trazado 3629" d="M22.269,149.339V146.7a9.153,9.153,0,0,0-4.2-7.69,5.194,5.194,0,1,0-9.915,0,9.152,9.152,0,0,0-4.2,7.69v2.64a9.15,9.15,0,0,0,3.96,7.532v2.716a1.4,1.4,0,0,1-.777,1.257l-4.271,2.136A5.167,5.167,0,0,0,0,167.625v10.752a1.235,1.235,0,1,0,2.47,0V168.16l2.012,2.012a2.708,2.708,0,0,1,.8,1.927v6.279a1.235,1.235,0,1,0,2.47,0V172.1a5.161,5.161,0,0,0-1.521-3.673l-2.8-2.8c-.014-.013-.028-.025-.042-.038a2.754,2.754,0,0,1,.59-.4l4.271-2.136a3.934,3.934,0,0,0,.612-.382l3.019,3.02v12.688a1.235,1.235,0,1,0,2.47,0V165.69l3.02-3.02a3.916,3.916,0,0,0,.612.382l1.178.589a1.235,1.235,0,1,0,1.1-2.209l-1.178-.589a1.4,1.4,0,0,1-.777-1.257v-2.716A9.15,9.15,0,0,0,22.269,149.339Zm-9.155-14.6a2.728,2.728,0,0,1,2.725,2.725,2.768,2.768,0,0,1-.043.487,9.154,9.154,0,0,0-5.359,0,2.708,2.708,0,0,1,2.678-3.21Zm0,5.28A6.692,6.692,0,0,1,19.8,146.7v.448a7.752,7.752,0,0,1-8.336-2.508,1.235,1.235,0,0,0-1.861-.132,8.079,8.079,0,0,1-3.167,2.022A6.691,6.691,0,0,1,13.114,140.015Zm0,23.417-2.854-2.854a3.91,3.91,0,0,0,.129-.991v-1.507a9.171,9.171,0,0,0,5.45,0v1.507a3.909,3.909,0,0,0,.129.991Zm0-7.408a6.692,6.692,0,0,1-6.685-6.685v-.256a9.9,9.9,0,0,0,3.968-1.977,11.142,11.142,0,0,0,2.29,1.667,9.823,9.823,0,0,0,4.72,1.218,10.347,10.347,0,0,0,2.381-.285A6.693,6.693,0,0,1,13.114,156.024Z" transform="translate(0 -132.265)"/>
      </g>
    </g>
    <g id="Grupo_464" data-name="Grupo 464" transform="translate(74.551 40.331)">
      <g id="Grupo_463" data-name="Grupo 463" transform="translate(0 0)">
        <path id="Trazado_3630" data-name="Trazado 3630" d="M382.763,173.732l-6.911-3.456a1.4,1.4,0,0,1-.777-1.257v-1.75a7.816,7.816,0,0,0,2.64-5.858v-1.406h.085a1.235,1.235,0,0,0,1.235-1.235v-2.64A7.844,7.844,0,0,0,371.2,148.3h-2.64a7.844,7.844,0,0,0-7.835,7.835v2.64a1.235,1.235,0,0,0,1.235,1.235l.085,0v1.407a7.816,7.816,0,0,0,2.64,5.858v1.75a1.4,1.4,0,0,1-.777,1.257,1.235,1.235,0,1,0,1.1,2.209,3.934,3.934,0,0,0,.612-.382l3.02,3.02v16.647a1.235,1.235,0,1,0,2.47,0V175.123l3.019-3.02a3.918,3.918,0,0,0,.612.382l6.688,3.344-2.028,2.028a5.161,5.161,0,0,0-1.521,3.673V191.77a1.235,1.235,0,1,0,2.47,0V181.531a2.707,2.707,0,0,1,.8-1.927l1.921-1.921a2.752,2.752,0,0,1,.09.7V191.77a1.235,1.235,0,0,0,2.47,0V178.378A5.166,5.166,0,0,0,382.763,173.732ZM363.2,157.283v-1.151h0a5.371,5.371,0,0,1,5.365-5.365h2.64a5.371,5.371,0,0,1,5.365,5.365V157.5a18.887,18.887,0,0,1-8.639-2.4,1.235,1.235,0,0,0-1.558.154A8.088,8.088,0,0,1,363.2,157.283Zm6.685,15.581-2.854-2.854a3.909,3.909,0,0,0,.129-.991v-.263a7.828,7.828,0,0,0,5.45,0v.263a3.9,3.9,0,0,0,.129.991Zm0-6.088a5.371,5.371,0,0,1-5.365-5.365v-1.991h0a10.451,10.451,0,0,0,2.9-1.769,21.94,21.94,0,0,0,7.831,2.226v1.533A5.371,5.371,0,0,1,369.881,166.777Z" transform="translate(-360.726 -148.298)"/>
      </g>
    </g>
  </g>
</svg>
