<svg xmlns="http://www.w3.org/2000/svg" width="90.19" height="86.615" viewBox="0 0 73.19 66.615">
  <g id="Grupo_1199" data-name="Grupo 1199" transform="translate(0 0)">
    <path id="Trazado_3606" data-name="Trazado 3606" d="M71.761.5H1.43A1.43,1.43,0,0,0,0,1.926V9.049a1.429,1.429,0,0,0,1.43,1.43H22.357v2.507a4.5,4.5,0,0,0,4.5,4.5h2.114L32.047,22.4v4.846H25.185a1.429,1.429,0,0,0-1.078.491l-2.325,2.674a1.429,1.429,0,0,0,2.158,1.876l1.9-2.182h1.3v1.244a1.43,1.43,0,1,0,2.859,0V30.107h2.436v1.244a1.43,1.43,0,1,0,2.859,0V30.107h2.436v1.244a1.43,1.43,0,1,0,2.859,0V30.107h2.436v1.244a1.43,1.43,0,1,0,2.859,0V30.107h1.093l1.9,2.182a1.429,1.429,0,1,0,2.157-1.876l-2.325-2.674a1.429,1.429,0,0,0-1.078-.491H41.083V22.4l3.079-4.919h1.373a4.5,4.5,0,0,0,4.5-4.5V10.479H71.761a1.429,1.429,0,0,0,1.429-1.43V1.926A1.429,1.429,0,0,0,71.761.5ZM38.442,21.233a1.429,1.429,0,0,0-.218.758v5.256H34.906V21.992a1.434,1.434,0,0,0-.218-.758l-2.348-3.75h8.449Zm8.732-8.248a1.64,1.64,0,0,1-1.638,1.638H26.855a1.64,1.64,0,0,1-1.638-1.638V10.479H47.174ZM70.332,7.62H2.859V3.355H70.332Zm0,0" transform="translate(0 -0.496)"/>
    <path id="Trazado_3607" data-name="Trazado 3607" d="M247.219,236.6a1.429,1.429,0,0,0-1.43,1.43v16.614a1.43,1.43,0,0,0,2.859,0V238.032A1.429,1.429,0,0,0,247.219,236.6Zm0,0" transform="translate(-210.653 -202.851)"/>
    <path id="Trazado_3608" data-name="Trazado 3608" d="M247.219,389.41a1.43,1.43,0,0,0-1.43,1.43V399a1.43,1.43,0,0,0,2.859,0v-8.16A1.429,1.429,0,0,0,247.219,389.41Zm0,0" transform="translate(-210.653 -333.815)"/>
    <path id="Trazado_3609" data-name="Trazado 3609" d="M143.563,352.9a1.43,1.43,0,0,0-1.828.863l-1.091,3.044a1.43,1.43,0,1,0,2.691.965l1.091-3.044a1.43,1.43,0,0,0-.863-1.828Zm0,0" transform="translate(-120.466 -302.452)"/>
    <path id="Trazado_3610" data-name="Trazado 3610" d="M118.585,406.443a1.429,1.429,0,0,0-1.828.863l-2.057,5.737a1.43,1.43,0,1,0,2.691.965l2.057-5.737A1.43,1.43,0,0,0,118.585,406.443Zm0,0" transform="translate(-98.232 -348.34)"/>
    <path id="Trazado_3611" data-name="Trazado 3611" d="M166.769,236.682a1.428,1.428,0,0,0-1.828.863l-4.169,11.63a1.43,1.43,0,1,0,2.691.964l4.168-11.63A1.429,1.429,0,0,0,166.769,236.682Zm0,0" transform="translate(-137.718 -202.847)"/>
    <path id="Trazado_3612" data-name="Trazado 3612" d="M113.761,240.863a1.429,1.429,0,0,0,2.016-.144l1.52-1.754a1.429,1.429,0,1,0-2.16-1.872l-1.52,1.754A1.429,1.429,0,0,0,113.761,240.863Zm0,0" transform="translate(-97.076 -202.848)"/>
    <path id="Trazado_3613" data-name="Trazado 3613" d="M12.711,309a1.429,1.429,0,0,0-2.016.144l-8.526,9.838a1.429,1.429,0,1,0,2.16,1.872l8.526-9.838A1.43,1.43,0,0,0,12.711,309Zm0,0" transform="translate(-1.559 -264.596)"/>
    <path id="Trazado_3614" data-name="Trazado 3614" d="M342.215,341.6a1.429,1.429,0,1,0-2.691.964l5.423,15.13a1.429,1.429,0,1,0,2.691-.965Zm0,0" transform="translate(-290.917 -292.026)"/>
    <path id="Trazado_3615" data-name="Trazado 3615" d="M308.34,247.082l-3.419-9.538a1.43,1.43,0,0,0-2.692.964l3.419,9.537a1.43,1.43,0,0,0,2.692-.964Zm0,0" transform="translate(-258.954 -202.846)"/>
    <path id="Trazado_3616" data-name="Trazado 3616" d="M471.106,353.058a1.429,1.429,0,0,0-2.16,1.872l3.086,3.56a1.429,1.429,0,0,0,2.16-1.872Zm0,0" transform="translate(-401.61 -302.236)"/>
    <path id="Trazado_3617" data-name="Trazado 3617" d="M370.61,237.094a1.429,1.429,0,0,0-2.16,1.872L379.4,251.6a1.429,1.429,0,1,0,2.16-1.872Zm0,0" transform="translate(-315.48 -202.849)"/>
    <path id="Trazado_3618" data-name="Trazado 3618" d="M89.956,279.947a1.429,1.429,0,1,0-.528,1.734A1.44,1.44,0,0,0,89.956,279.947Zm0,0" transform="translate(-74.742 -239.243)"/>
  </g>
</svg>
