<svg xmlns="http://www.w3.org/2000/svg" width="90.051" height="89.438" viewBox="0 0 70.051 88.438">
  <g id="Grupo_338" data-name="Grupo 338" transform="translate(0 0)">
    <g id="Grupo_290" data-name="Grupo 290" transform="translate(0 40.548)">
      <g id="_001-smart_farm" data-name="001-smart farm">
        <path id="Trazado_1844" data-name="Trazado 1844" d="M14.26,160.02v2.057h44.8V192.7h2.057V162.077h6.872v43.776H61.122V192.7H59.064v13.158H8.741V162.077H14.26V160.02H0v13.032H2.057V162.077H6.684v43.776H2.057v-32.8H0V207.91H70.05V160.02Zm0,0" transform="translate(0 -160.02)" fill="#0c0c0c"/>
      </g>
    </g>
    <path id="Trazado_3531" data-name="Trazado 3531" d="M135.514,18.964h-2.942l-5.9,5.9.466.777a14.7,14.7,0,0,0,12.073,6.717h6.225v8.687h2.32V32.362h6.225a14.7,14.7,0,0,0,12.073-6.717l.466-.777-5.9-5.9H157.67a13.513,13.513,0,0,0-9.918,3.713V13.9h6.225A14.7,14.7,0,0,0,166.05,7.181l.466-.777-5.9-5.9H157.67c-6.277,0-9.568,3.011-11.078,5.053C145.082,3.512,141.792.5,135.514.5h-2.942l-5.9,5.9.466.777A14.7,14.7,0,0,0,139.207,13.9h6.225v8.778a13.518,13.518,0,0,0-9.918-3.713ZM157.67,2.821h1.981l3.9,3.9a12.2,12.2,0,0,1-9.57,4.862h-5.71c1.592-1.3,5.231-3.835,9.4-3.835V5.424a17.381,17.381,0,0,0-9.918,3.613V8.066c.474-.969,2.967-5.245,9.918-5.245Zm-28.034,3.9,3.9-3.9h1.982c6.96,0,9.449,4.287,9.918,5.244v.972a17.384,17.384,0,0,0-9.918-3.613v2.32c4.172,0,7.81,2.534,9.4,3.834h-5.711a12.2,12.2,0,0,1-9.57-4.862Zm0,18.464,3.9-3.9h1.982c6.96,0,9.449,4.287,9.918,5.244V27.5a17.384,17.384,0,0,0-9.918-3.613v2.32c4.172,0,7.81,2.534,9.4,3.834h-5.711a12.2,12.2,0,0,1-9.57-4.862Zm28.034-3.9h1.981l3.9,3.9a12.2,12.2,0,0,1-9.57,4.862h-5.71c1.592-1.3,5.231-3.834,9.4-3.834v-2.32a17.381,17.381,0,0,0-9.918,3.613v-.971c.474-.968,2.967-5.245,9.918-5.245Zm0,0" transform="translate(-101.06 -0.5)" fill="#0c0c0c"/>
    <g id="_013-smart_farm" data-name="013-smart farm" transform="translate(17.083 30.488)">
      <path id="Trazado_1961" data-name="Trazado 1961" d="M327.643,200.778h-9.862v7.365h0V244.01a3.557,3.557,0,0,0,3.408,3.683h9.881c1.879,0,2.633-1.652,2.633-3.683v-7.416H331.07v7.416c0,.684.535,1.262,0,1.262h-9.881a1.165,1.165,0,0,1-.986-1.262V208.143h0v-2.421h0V203.2H331.07v2.523h0v2.421h0v28.451H333.7V208.143h0v-7.365h-6.06Z" transform="translate(-317.781 -200.778)" fill="#0c0c0c"/>
    </g>
    <path id="Trazado_3532" data-name="Trazado 3532" d="M355.332,276.872v-2.208H350.8V262.246h-2.207v28.149h6.738v-2.208H350.8v-4.553h4.531v-2.208H350.8v-4.553Zm0,0" transform="translate(-326.365 -221.936)" fill="#0c0c0c"/>
  </g>
</svg>
