<svg xmlns="http://www.w3.org/2000/svg" width="96.797" height="86.524" viewBox="0 0 96.797 76.524">
  <g id="Grupo_292" data-name="Grupo 292" transform="translate(0 0)">
    <path id="Trazado_3533" data-name="Trazado 3533" d="M45.49,71.79V66.582h7.182c9.173,0,13.739-7.435,13.929-7.751l.537-.9-6.812-6.811H56.933c-5.762,0-9.342,2.2-11.443,4.284V48.121h7.182c9.173,0,13.739-7.434,13.929-7.751l.538-.9-6.812-6.812H56.933c-5.762,0-9.342,2.2-11.442,4.284V31.02A15.539,15.539,0,1,0,33.057,4.661l1.911,1.874a12.754,12.754,0,0,1,7.845-3.789V14.985l-8.653,8.653A12.858,12.858,0,0,1,33.01,9.109L30.694,7.768A15.539,15.539,0,0,0,42.813,31.019v5.928c-2.1-2.085-5.681-4.284-11.443-4.284H27.976l-6.812,6.812.537.9c.19.316,4.756,7.751,13.929,7.751h7.182v7.288c-2.1-2.085-5.681-4.284-11.442-4.284H27.976l-6.812,6.811.537.9c.19.316,4.756,7.751,13.929,7.751h7.182v4.424H25.136l-2.84,2.84H19.144L16.3,71.005H0v2.677H15.194l2.84,2.841H23.4l2.841-2.841H43.6l2.84,2.841H77.8V73.682l-30.259.164ZM56.933,35.339h2.286l4.494,4.495a14.075,14.075,0,0,1-11.041,5.61H46.079c1.829-1.5,6.017-4.424,10.853-4.424V38.343c-4.844,0-9.007,2.386-11.443,4.168V41.393c.537-1.083,3.444-6.054,11.443-6.054ZM44.151,28.4a12.762,12.762,0,0,1-8.1-2.872l8.653-8.653H56.944A12.882,12.882,0,0,1,44.151,28.4ZM56.944,14.2H45.49V2.746A12.886,12.886,0,0,1,56.944,14.2ZM24.589,39.834l4.495-4.495H31.37c8.03,0,10.9,4.947,11.442,6.051v1.121c-2.436-1.783-6.6-4.168-11.442-4.168V41.02c4.814,0,9.012,2.924,10.849,4.424H35.63a14.078,14.078,0,0,1-11.041-5.61ZM56.933,53.8h2.286L63.713,58.3a14.075,14.075,0,0,1-11.041,5.61H46.079c1.829-1.5,6.017-4.424,10.853-4.424V56.8c-4.844,0-9.007,2.386-11.443,4.168V59.854c.537-1.083,3.444-6.054,11.443-6.054ZM24.589,58.3,29.084,53.8H31.37c8.03,0,10.9,4.947,11.442,6.051v1.121c-2.436-1.783-6.6-4.168-11.442-4.168v2.677c4.814,0,9.012,2.923,10.849,4.424H35.63A14.078,14.078,0,0,1,24.589,58.3Zm0,0" transform="translate(18.992 0)"/>
    <path id="Trazado_3544" data-name="Trazado 3544" d="M363.531,63.66h-4.718V78.533H386.2V73.815H363.531Zm0,0" transform="translate(-358.813 -20.31)"/>
    <path id="Trazado_3545" data-name="Trazado 3545" d="M423.488,132.012H398.6V127.32h24.89Zm0,0" transform="translate(-398.598 -94.965)"/>
    <path id="Trazado_3546" data-name="Trazado 3546" d="M423.488,163.844H398.6v-4.692h24.89Zm0,0" transform="translate(-398.598 -135.583)"/>
    <path id="Trazado_3547" data-name="Trazado 3547" d="M423.488,195.672H398.6V190.98h24.89Zm0,0" transform="translate(-398.598 -176.195)"/>
    <path id="Trazado_3548" data-name="Trazado 3548" d="M445.364,227.5H430.43v-4.692h14.934Zm0,0" transform="translate(-430.197 -217.327)"/>
  </g>
</svg>
