<svg xmlns="http://www.w3.org/2000/svg" width="90.496" height="90.49" viewBox="0 0 68.496 68.49">
  <g id="Grupo_1361" data-name="Grupo 1361" transform="translate(-22.519 -18.733)">
    <g id="Grupo_413" data-name="Grupo 413" transform="translate(22.519 58.062)">
      <g id="Grupo_412" data-name="Grupo 412">
        <path id="Trazado_3591" data-name="Trazado 3591" d="M68.488,298.858a5.145,5.145,0,0,0-8.644-3.479L48.8,305.665a4.808,4.808,0,0,0-3.648-4.826l-13.489-3.424a12.894,12.894,0,0,0-7.164.234l-9.325,3.027v-2.683a1.338,1.338,0,0,0-1.338-1.338H1.338A1.338,1.338,0,0,0,0,297.995v23.829a1.338,1.338,0,0,0,1.338,1.338h12.5a1.338,1.338,0,0,0,1.338-1.338V303.491l10.151-3.3A10.225,10.225,0,0,1,31,300.009l13.489,3.424a2.167,2.167,0,0,1-.533,4.267H33.22a1.338,1.338,0,1,0,0,2.675h4.22a1.349,1.349,0,0,0,.153.009h6.634a8.693,8.693,0,0,0,5.943-2.339l11.5-10.708a2.47,2.47,0,1,1,3.366,3.615L49.194,315.7a5.866,5.866,0,0,1-4.009,1.577H24.455a1.338,1.338,0,1,0,0,2.675h20.73a8.534,8.534,0,0,0,5.832-2.294l15.839-14.745A5.131,5.131,0,0,0,68.488,298.858ZM12.5,320.486H2.675V299.332H12.5v21.153Z" transform="translate(0 -293.999)"/>
      </g>
    </g>
    <g id="Grupo_415" data-name="Grupo 415" transform="translate(40.237 81.338)">
      <g id="Grupo_414" data-name="Grupo 414">
        <path id="Trazado_3592" data-name="Trazado 3592" d="M134.725,468.375a1.336,1.336,0,1,0,.392.946A1.348,1.348,0,0,0,134.725,468.375Z" transform="translate(-132.44 -467.983)"/>
      </g>
    </g>
    <g id="Grupo_417" data-name="Grupo 417" transform="translate(28.768 79.956)">
      <g id="Grupo_416" data-name="Grupo 416">
        <path id="Trazado_3593" data-name="Trazado 3593" d="M48.992,458.045a1.342,1.342,0,1,0,.391.947A1.352,1.352,0,0,0,48.992,458.045Z" transform="translate(-46.707 -457.654)"/>
      </g>
    </g>
    <g id="Grupo_419" data-name="Grupo 419" transform="translate(30.889 18.733)">
      <g id="Grupo_418" data-name="Grupo 418">
        <path id="Trazado_3594" data-name="Trazado 3594" d="M83.3.02H81.848a11.8,11.8,0,0,0-11.79,11.79v3.476a8.293,8.293,0,0,0,.8,16.548H71.4A1.338,1.338,0,0,0,72.734,30.5V11.81A9.125,9.125,0,0,1,81.848,2.7H83.3A1.338,1.338,0,0,0,83.3.02ZM70.058,26.846V29.1a5.619,5.619,0,0,1,0-11.122Z" transform="translate(-62.567 -0.02)"/>
      </g>
    </g>
    <g id="Grupo_421" data-name="Grupo 421" transform="translate(55.427 18.733)">
      <g id="Grupo_420" data-name="Grupo 420">
        <path id="Trazado_3595" data-name="Trazado 3595" d="M247.376.02h-.057a1.338,1.338,0,1,0,0,2.675h.057a1.338,1.338,0,1,0,0-2.675Z" transform="translate(-245.981 -0.02)"/>
      </g>
    </g>
    <g id="Grupo_423" data-name="Grupo 423" transform="translate(51.944 18.733)">
      <g id="Grupo_422" data-name="Grupo 422" transform="translate(0 0)">
        <path id="Trazado_3596" data-name="Trazado 3596" d="M243.152,15.286V11.81A11.8,11.8,0,0,0,231.362.02h-1.5a1.338,1.338,0,1,0,0,2.675h1.5a9.125,9.125,0,0,1,9.115,9.115V34.243a.826.826,0,0,1-.825.825h-9.957a3.481,3.481,0,0,0-3.209-2.14h-3.061a3.48,3.48,0,0,0-3.476,3.476v0a3.48,3.48,0,0,0,3.476,3.476h3.061a3.48,3.48,0,0,0,3.208-2.14h9.958a3.5,3.5,0,0,0,3.5-3.5V31.794a8.293,8.293,0,0,0,0-16.508ZM226.485,37.208h-3.061a.8.8,0,0,1-.8-.8v0a.8.8,0,0,1,.8-.8h3.061a.8.8,0,0,1,0,1.605ZM243.152,29.1V17.979a5.619,5.619,0,0,1,0,11.122Z" transform="translate(-219.948 -0.02)"/>
      </g>
    </g>
    <g id="Grupo_425" data-name="Grupo 425" transform="translate(43.655 23.888)">
      <g id="Grupo_424" data-name="Grupo 424">
        <path id="Trazado_3597" data-name="Trazado 3597" d="M182.87,48.221h-1.248a10.976,10.976,0,0,0-.647-1.563l.883-.883a1.337,1.337,0,0,0,0-1.892l-2.978-2.978a1.338,1.338,0,0,0-1.892,0l-.883.883a10.978,10.978,0,0,0-1.563-.647V39.893a1.338,1.338,0,0,0-1.338-1.338h-4.211a1.338,1.338,0,0,0-1.338,1.338v1.252a10.972,10.972,0,0,0-1.559.647l-.886-.886a1.338,1.338,0,0,0-1.892,0l-2.978,2.978a1.337,1.337,0,0,0,0,1.892l.891.891a10.941,10.941,0,0,0-.643,1.555h-1.261a1.338,1.338,0,0,0-1.338,1.338V53.77a1.338,1.338,0,0,0,1.338,1.338h1.265a10.966,10.966,0,0,0,.643,1.551l-.895.895a1.337,1.337,0,0,0,0,1.892l2.978,2.978a1.338,1.338,0,0,0,1.892,0l.895-.895a10.952,10.952,0,0,0,1.551.643v1.264a1.338,1.338,0,0,0,1.338,1.338H173.2a1.338,1.338,0,0,0,1.338-1.338V62.176a10.945,10.945,0,0,0,1.555-.643l.891.891a1.338,1.338,0,0,0,1.892,0l2.978-2.978a1.337,1.337,0,0,0,0-1.892l-.887-.887a10.942,10.942,0,0,0,.647-1.559h1.252a1.338,1.338,0,0,0,1.338-1.338V49.559A1.338,1.338,0,0,0,182.87,48.221Zm-1.338,4.211h-.93a1.347,1.347,0,0,0-1.312,1.055,8.312,8.312,0,0,1-1.115,2.683,1.338,1.338,0,0,0,.181,1.667l.663.663-1.086,1.086-.666-.666a1.338,1.338,0,0,0-1.665-.182,8.311,8.311,0,0,1-2.687,1.111,1.338,1.338,0,0,0-1.05,1.307V62.1H170.33v-.946a1.338,1.338,0,0,0-1.048-1.306,8.316,8.316,0,0,1-2.683-1.113,1.337,1.337,0,0,0-1.666.182l-.67.67L163.177,58.5l.67-.67a1.337,1.337,0,0,0,.182-1.666,8.312,8.312,0,0,1-1.113-2.683,1.338,1.338,0,0,0-1.306-1.048h-.946V50.9h.941a1.344,1.344,0,0,0,1.294-.988c.006-.021.011-.043.016-.064a8.311,8.311,0,0,1,1.111-2.685,1.338,1.338,0,0,0-.182-1.665l-.666-.666,1.086-1.086.663.663a1.338,1.338,0,0,0,1.667.181,8.307,8.307,0,0,1,2.666-1.112,1.34,1.34,0,0,0,1.072-1.312v-.933h1.536v.923a1.355,1.355,0,0,0,1.039,1.312l.018,0a8.312,8.312,0,0,1,2.687,1.113,1.338,1.338,0,0,0,1.665-.182l.658-.658,1.086,1.086-.656.656a1.344,1.344,0,0,0-.18,1.673,8.315,8.315,0,0,1,1.106,2.664A1.339,1.339,0,0,0,180.6,50.9h.931v1.536Z" transform="translate(-157.989 -38.555)"/>
      </g>
    </g>
    <g id="Grupo_427" data-name="Grupo 427" transform="translate(51.681 31.914)">
      <g id="Grupo_426" data-name="Grupo 426">
        <path id="Trazado_3598" data-name="Trazado 3598" d="M223.066,98.55a5.083,5.083,0,1,0,5.083,5.083A5.089,5.089,0,0,0,223.066,98.55Zm0,7.491a2.408,2.408,0,1,1,2.408-2.408A2.411,2.411,0,0,1,223.066,106.041Z" transform="translate(-217.983 -98.55)"/>
      </g>
    </g>
    <g id="Grupo_429" data-name="Grupo 429" transform="translate(28.768 65.82)">
      <g id="Grupo_428" data-name="Grupo 428">
        <path id="Trazado_3599" data-name="Trazado 3599" d="M48.05,351.992a1.338,1.338,0,0,0-1.338,1.338v9.23a1.338,1.338,0,1,0,2.675,0v-9.23A1.338,1.338,0,0,0,48.05,351.992Z" transform="translate(-46.712 -351.992)"/>
      </g>
    </g>
  </g>
</svg>
