<svg xmlns="http://www.w3.org/2000/svg" width="90.177" height="90.982" viewBox="0 0 70.177 84.982">
  <g id="Grupo_1200" data-name="Grupo 1200" transform="translate(0 0)">
    <path id="Trazado_3619" data-name="Trazado 3619" d="M372.756,167.438h-7.222a1.245,1.245,0,1,0,0,2.49h7.222a1.245,1.245,0,1,0,0-2.49Zm0,0" transform="translate(-303.824 -139.647)"/>
    <path id="Trazado_3620" data-name="Trazado 3620" d="M365.534,109.142h3.279a1.245,1.245,0,0,0,0-2.49h-3.279a1.245,1.245,0,0,0,0,2.49Zm0,0" transform="translate(-303.824 -88.95)"/>
    <path id="Trazado_3621" data-name="Trazado 3621" d="M365.534,48.353h4.441a1.245,1.245,0,0,0,0-2.49h-4.441a1.245,1.245,0,0,0,0,2.49Zm0,0" transform="translate(-303.824 -38.251)"/>
    <path id="Trazado_3622" data-name="Trazado 3622" d="M369.975,289.012h-4.441a1.245,1.245,0,1,0,0,2.49h4.441a1.245,1.245,0,0,0,0-2.49Zm0,0" transform="translate(-303.824 -241.042)"/>
    <path id="Trazado_3623" data-name="Trazado 3623" d="M365.534,230.713h3.279a1.245,1.245,0,1,0,0-2.49h-3.279a1.245,1.245,0,1,0,0,2.49Zm0,0" transform="translate(-303.824 -190.342)"/>
    <path id="Trazado_3624" data-name="Trazado 3624" d="M188.84,51.422V11.26a11.26,11.26,0,1,0-22.52,0V51.422a18.669,18.669,0,1,0,22.52,0ZM177.58,82.493a16.179,16.179,0,0,1-9.3-29.42,1.246,1.246,0,0,0,.528-1.019V11.26a8.77,8.77,0,1,1,17.54,0V52.054a1.246,1.246,0,0,0,.528,1.019,16.179,16.179,0,0,1-9.3,29.42Zm0,0" transform="translate(-132.535 0)"/>
    <path id="Trazado_3625" data-name="Trazado 3625" d="M210.115,83.086V40.457a5.449,5.449,0,1,0-10.9,0V72.428a1.245,1.245,0,1,0,2.49,0V49.389h5.919v34.53a1.245,1.245,0,0,0,.81,1.167,10.789,10.789,0,1,1-7.539,0,1.246,1.246,0,0,0,.81-1.167v-6.51a1.245,1.245,0,1,0-2.49,0v5.677a13.278,13.278,0,1,0,10.9,0ZM201.706,46.9V40.457a2.959,2.959,0,1,1,5.919,0V46.9Zm0,0" transform="translate(-159.621 -29.197)"/>
    <path id="Trazado_3626" data-name="Trazado 3626" d="M26.694,55.8a1.755,1.755,0,0,0,1.058-3.255,2.988,2.988,0,0,1,0-5.139,1.756,1.756,0,0,0-1.058-3.255,2.989,2.989,0,0,1-3.021-4.157A1.755,1.755,0,0,0,20.9,37.983,2.989,2.989,0,0,1,16.017,36.4a1.755,1.755,0,0,0-3.422,0,2.989,2.989,0,0,1-4.888,1.588,1.755,1.755,0,0,0-2.769,2.012,2.989,2.989,0,0,1-3.021,4.157A1.756,1.756,0,0,0,.86,47.407a2.989,2.989,0,0,1,0,5.139A1.755,1.755,0,0,0,1.918,55.8a2.989,2.989,0,0,1,3.021,4.157A1.755,1.755,0,0,0,7.707,61.97a2.989,2.989,0,0,1,4.888,1.588,1.755,1.755,0,0,0,3.422,0A2.989,2.989,0,0,1,20.9,61.97a1.755,1.755,0,0,0,2.769-2.012A2.989,2.989,0,0,1,26.694,55.8Zm-1.645-2.334a5.5,5.5,0,0,0-4.1,5.648,5.5,5.5,0,0,0-6.639,2.158,5.5,5.5,0,0,0-6.64-2.158,5.5,5.5,0,0,0-4.1-5.648,5.5,5.5,0,0,0,0-6.981,5.5,5.5,0,0,0,4.1-5.648,5.5,5.5,0,0,0,6.64-2.157,5.5,5.5,0,0,0,6.639,2.157,5.5,5.5,0,0,0,4.1,5.648A5.5,5.5,0,0,0,25.049,53.467Zm0,0" transform="translate(0 -29.216)"/>
    <path id="Trazado_3627" data-name="Trazado 3627" d="M51.7,83.727a6.864,6.864,0,1,0,6.864,6.864A6.871,6.871,0,0,0,51.7,83.727Zm0,11.237a4.374,4.374,0,1,1,4.374-4.373A4.378,4.378,0,0,1,51.7,94.963Zm0,0" transform="translate(-37.397 -69.83)"/>
  </g>
</svg>
