<svg xmlns="http://www.w3.org/2000/svg" width="90.817" height="90.835" viewBox="0 0 78.817 78.835">
  <g id="Grupo_1362" data-name="Grupo 1362" transform="translate(-15.951 -18.754)">
    <path id="Trazado_3740" data-name="Trazado 3740" d="M116.01,28.548a1.359,1.359,0,0,1-.731-2.505,39.5,39.5,0,0,1,4.313-2.378,1.36,1.36,0,0,1,1.161,2.459,36.79,36.79,0,0,0-4.015,2.213,1.361,1.361,0,0,1-.727.211Zm0,0" transform="translate(-81.045 -1.158)"/>
    <path id="Trazado_3734" data-name="Trazado 3734" d="M408.684,359.231a1.358,1.358,0,0,1-1.348-1.21l-1.359-12.233a1.359,1.359,0,1,1,2.7-.3l1.21,10.882,10.882-1.208a1.359,1.359,0,1,1,.3,2.7l-12.233,1.359a1.2,1.2,0,0,1-.152.01Zm0,0" transform="translate(-327.51 -272.515)"/>
    <path id="Trazado_3735" data-name="Trazado 3735" d="M68.522,68a1.358,1.358,0,0,1-1.029-2.245c1.014-1.178,2.124-2.376,3.3-3.559a1.359,1.359,0,1,1,1.929,1.915c-1.131,1.139-2.2,2.289-3.17,3.418a1.354,1.354,0,0,1-1.03.472Zm0,0" transform="translate(-40.872 -33.525)"/>
    <path id="Trazado_3736" data-name="Trazado 3736" d="M39.4,193.227c-.317,0-.634,0-.949-.011a1.359,1.359,0,0,1-1.326-1.391,1.376,1.376,0,0,1,1.392-1.327,37.414,37.414,0,0,0,9.211-.931,1.359,1.359,0,0,1,.61,2.649,39.892,39.892,0,0,1-8.938,1.01ZM29,191.786a1.343,1.343,0,0,1-.371-.053,39.3,39.3,0,0,1-9.141-3.9,1.359,1.359,0,1,1,1.374-2.346,36.563,36.563,0,0,0,8.507,3.633A1.36,1.36,0,0,1,29,191.786Zm-16.423-9.623a1.356,1.356,0,0,1-.959-.4,39.537,39.537,0,0,1-6.113-7.835,1.359,1.359,0,0,1,2.336-1.391,36.859,36.859,0,0,0,5.694,7.3,1.361,1.361,0,0,1-.958,2.326ZM2.85,165.8a1.359,1.359,0,0,1-1.305-.982A39.436,39.436,0,0,1,.005,155a1.359,1.359,0,1,1,2.717-.08,36.7,36.7,0,0,0,1.434,9.139A1.363,1.363,0,0,1,2.85,165.8Zm-.414-19.006a1.363,1.363,0,0,1-1.315-1.707A38.324,38.324,0,0,1,4.935,135.9,1.36,1.36,0,0,1,7.3,137.244a35.585,35.585,0,0,0-3.546,8.533,1.36,1.36,0,0,1-1.314,1.014Zm0,0" transform="translate(15.946 -95.638)"/>
    <path id="Trazado_3737" data-name="Trazado 3737" d="M363.279,455.394a1.359,1.359,0,0,1-.633-2.563,36.524,36.524,0,0,0,3.915-2.38,1.36,1.36,0,0,1,1.557,2.231,39.213,39.213,0,0,1-4.21,2.558,1.356,1.356,0,0,1-.629.155Zm0,0" transform="translate(-290.242 -362.133)"/>
    <path id="Trazado_3738" data-name="Trazado 3738" d="M416.145,406.983a1.359,1.359,0,0,1-.976-2.305c1.114-1.15,2.157-2.314,3.1-3.46a1.359,1.359,0,0,1,2.1,1.726c-.99,1.2-2.083,2.423-3.249,3.625a1.352,1.352,0,0,1-.976.414Zm0,0" transform="translate(-334.969 -320.267)"/>
    <path id="Trazado_3739" data-name="Trazado 3739" d="M242.193,56.695a1.36,1.36,0,0,1-1.206-1.985,33.508,33.508,0,0,0,3.028-8.384,1.36,1.36,0,0,1,2.66.567,36.169,36.169,0,0,1-3.273,9.066,1.358,1.358,0,0,1-1.21.736Zm3.845-17.976a1.36,1.36,0,0,1-1.356-1.287,36.677,36.677,0,0,0-1.561-8.809,1.36,1.36,0,0,1,2.6-.8,39.374,39.374,0,0,1,1.676,9.464,1.361,1.361,0,0,1-1.285,1.43h-.073Zm-5.411-17.608a1.36,1.36,0,0,1-1.163-.656,36.944,36.944,0,0,0-5.529-7.039,1.359,1.359,0,1,1,1.918-1.926,39.644,39.644,0,0,1,5.937,7.558,1.359,1.359,0,0,1-1.163,2.062Zm-13.056-13a1.358,1.358,0,0,1-.7-.193,36.524,36.524,0,0,0-8.18-3.625,1.36,1.36,0,0,1,.788-2.6,39.256,39.256,0,0,1,8.788,3.9,1.359,1.359,0,0,1-.7,2.526ZM200.684,3.429a1.36,1.36,0,0,1-.26-2.694A39.964,39.964,0,0,1,210.011.05,1.359,1.359,0,0,1,211.3,1.474a1.384,1.384,0,0,1-1.424,1.291,37.169,37.169,0,0,0-8.932.639,1.311,1.311,0,0,1-.262.025Zm0,0" transform="translate(-152.685 18.753)"/>
    <path id="Trazado_3741" data-name="Trazado 3741" d="M23.669,76.747a1.359,1.359,0,0,1-1.35-1.21l-1.21-10.882-10.88,1.208a1.359,1.359,0,1,1-.3-2.7L22.161,61.8a1.36,1.36,0,0,1,1.5,1.2l1.359,12.233a1.359,1.359,0,0,1-1.2,1.5,1.148,1.148,0,0,1-.15.009Zm0,0" transform="translate(8.575 -33.526)"/>
    <path id="Trazado_3742" data-name="Trazado 3742" d="M151.335,139.926c-10.494,0-19.03-8.178-19.03-18.233,0-15.589,17.352-32.337,18.09-33.042a1.359,1.359,0,0,1,1.877,0c.738.706,18.089,17.454,18.089,33.042,0,10.053-8.534,18.233-19.027,18.233Zm0-48.366c-3.6,3.709-16.311,17.69-16.311,30.132,0,8.554,7.317,15.514,16.311,15.514s16.31-6.959,16.31-15.514C167.645,109.238,154.936,95.268,151.336,91.56Zm0,0" transform="translate(-95.983 -55.929)"/>
    <path id="Trazado_3743" data-name="Trazado 3743" d="M170.345,304.451a1.357,1.357,0,0,1-1.19-.7,12.293,12.293,0,0,1-1.537-5.908,1.359,1.359,0,0,1,1.358-1.36h0a1.36,1.36,0,0,1,1.359,1.358,9.548,9.548,0,0,0,1.2,4.6,1.358,1.358,0,0,1-1.19,2.015Zm0,0" transform="translate(-125.858 -232.076)"/>
    <path id="Trazado_3744" data-name="Trazado 3744" d="M218.551,366.011a13.508,13.508,0,0,1-6.028-1.5,1.359,1.359,0,1,1,1.182-2.447,10.913,10.913,0,0,0,4.847,1.223,1.359,1.359,0,0,1,0,2.719Zm0,0" transform="translate(-163.2 -287.451)"/>
  </g>
</svg>
